<svg width="48" height="48" viewBox="0 0 48 48" fill="none" xmlns="http://www.w3.org/2000/svg">
<path fill-rule="evenodd" clip-rule="evenodd" d="M6.14309 32.2572C6.55332 31.2316 7.71726 30.7328 8.74283 31.143C9.71956 31.5337 10.2185 32.6081 9.90946 33.5954L9.857 33.7428L7.857 38.7428C7.44677 39.7683 6.28283 40.2672 5.25726 39.8569C4.28053 39.4662 3.78157 38.3919 4.09063 37.4046L4.14309 37.2572L6.14309 32.2572ZM15.1431 32.2572C15.5533 31.2316 16.7173 30.7328 17.7428 31.143C18.7196 31.5337 19.2185 32.6081 18.9095 33.5954L18.857 33.7428L16.857 38.7428C16.4468 39.7683 15.2828 40.2672 14.2573 39.8569C13.2805 39.4662 12.7816 38.3919 13.0906 37.4046L13.1431 37.2572L15.1431 32.2572ZM30.1431 36.2572C30.5533 35.2316 31.7173 34.7328 32.7428 35.143C33.7196 35.5337 34.2185 36.6081 33.9095 37.5954L33.857 37.7428L31.857 42.7428C31.4468 43.7683 30.2828 44.2672 29.2573 43.8569C28.2805 43.4662 27.7816 42.3919 28.0906 41.4046L28.1431 41.2572L30.1431 36.2572ZM41.7428 35.143C42.7196 35.5337 43.2185 36.6081 42.9095 37.5954L42.857 37.7428L40.857 42.7428C40.4468 43.7683 39.2828 44.2672 38.2573 43.8569C37.2805 43.4662 36.7816 42.3919 37.0906 41.4046L37.1431 41.2572L39.1431 36.2572C39.5533 35.2316 40.7173 34.7328 41.7428 35.143ZM39.2428 26.143C40.2196 26.5337 40.7185 27.6081 40.4095 28.5954L40.357 28.7428L38.357 33.7428C37.9468 34.7683 36.7828 35.2672 35.7573 34.8569C34.7805 34.4662 34.2816 33.3919 34.5906 32.4046L34.6431 32.2572L36.6431 27.2572C37.0533 26.2316 38.2173 25.7328 39.2428 26.143Z" fill="url(#paint0_linear_17_927)"/>
<g filter="url(#filter0_i_17_927)">
<path fill-rule="evenodd" clip-rule="evenodd" d="M24 23C25.1046 23 26 23.8954 26 25V39C26 42.3137 23.3137 45 20 45C18.8954 45 18 44.1046 18 43C18 41.8954 18.8954 41 20 41C21.1046 41 22 40.1046 22 39V25C22 23.8954 22.8954 23 24 23Z" fill="url(#paint1_linear_17_927)"/>
</g>
<path fill-rule="evenodd" clip-rule="evenodd" d="M24 3C36.1503 3 46 12.8497 46 25C46 26.1046 45.1046 27 44 27H4C2.89543 27 2 26.1046 2 25C2 12.8497 11.8497 3 24 3Z" fill="url(#paint2_linear_17_927)"/>
<path fill-rule="evenodd" clip-rule="evenodd" d="M24 27C19.5556 27 12.8889 27 4 27C2.89543 27 2 26.1046 2 25C2 12.8497 11.8497 3 24 3V27Z" fill="url(#paint3_linear_17_927)"/>
<path fill-rule="evenodd" clip-rule="evenodd" d="M32 27C32 13.7452 28.4183 3 24 3C19.5817 3 16 13.7452 16 27H32Z" fill="url(#paint4_linear_17_927)"/>
<defs>
<filter id="filter0_i_17_927" x="16" y="23" width="10" height="26" filterUnits="userSpaceOnUse" color-interpolation-filters="sRGB">
<feFlood flood-opacity="0" result="BackgroundImageFix"/>
<feBlend mode="normal" in="SourceGraphic" in2="BackgroundImageFix" result="shape"/>
<feColorMatrix in="SourceAlpha" type="matrix" values="0 0 0 0 0 0 0 0 0 0 0 0 0 0 0 0 0 0 127 0" result="hardAlpha"/>
<feOffset dx="-2" dy="4"/>
<feGaussianBlur stdDeviation="2"/>
<feComposite in2="hardAlpha" operator="arithmetic" k2="-1" k3="1"/>
<feColorMatrix type="matrix" values="0 0 0 0 1 0 0 0 0 1 0 0 0 0 1 0 0 0 1 0"/>
<feBlend mode="normal" in2="shape" result="effect1_innerShadow_17_927"/>
</filter>
<linearGradient id="paint0_linear_17_927" x1="3.99951" y1="25.9995" x2="3.99951" y2="44.0005" gradientUnits="userSpaceOnUse">
<stop stop-color="#4CAFFF"/>
<stop offset="1" stop-color="#8FD5FF"/>
</linearGradient>
<linearGradient id="paint1_linear_17_927" x1="18.5604" y1="23" x2="29.9494" y2="25.281" gradientUnits="userSpaceOnUse">
<stop stop-color="white"/>
<stop offset="1" stop-color="#B4E6FB"/>
</linearGradient>
<linearGradient id="paint2_linear_17_927" x1="24" y1="3" x2="24" y2="27" gradientUnits="userSpaceOnUse">
<stop stop-color="#FFAA85"/>
<stop offset="1" stop-color="#FF6161"/>
</linearGradient>
<linearGradient id="paint3_linear_17_927" x1="13" y1="3" x2="13" y2="27" gradientUnits="userSpaceOnUse">
<stop stop-color="#7AC7FF"/>
<stop offset="1" stop-color="#2E69FF"/>
</linearGradient>
<linearGradient id="paint4_linear_17_927" x1="24" y1="3" x2="24" y2="27" gradientUnits="userSpaceOnUse">
<stop stop-color="#FFFB95"/>
<stop offset="1" stop-color="#FFB812"/>
</linearGradient>
</defs>
</svg>
