<svg width="48" height="48" viewBox="0 0 48 48" fill="none" xmlns="http://www.w3.org/2000/svg">
<path fill-rule="evenodd" clip-rule="evenodd" d="M8.74283 30.143C9.76839 30.5533 10.2672 31.7172 9.857 32.7428L5.857 42.7428C5.44677 43.7683 4.28283 44.2672 3.25726 43.8569C2.2317 43.4467 1.73286 42.2828 2.14309 41.2572L6.14309 31.2572C6.55332 30.2316 7.71726 29.7328 8.74283 30.143ZM14.7428 30.143C15.7684 30.5533 16.2672 31.7172 15.857 32.7428L11.857 42.7428C11.4468 43.7683 10.2828 44.2672 9.25726 43.8569C8.2317 43.4467 7.73286 42.2828 8.14309 41.2572L12.1431 31.2572C12.5533 30.2316 13.7173 29.7328 14.7428 30.143ZM20.7428 30.143C21.7684 30.5533 22.2672 31.7172 21.857 32.7428L17.857 42.7428C17.4468 43.7683 16.2828 44.2672 15.2573 43.8569C14.2317 43.4467 13.7329 42.2828 14.1431 41.2572L18.1431 31.2572C18.5533 30.2316 19.7173 29.7328 20.7428 30.143ZM38.7428 32.143C39.7684 32.5533 40.2672 33.7172 39.857 34.7428L35.857 44.7428C35.4468 45.7683 34.2828 46.2672 33.2573 45.8569C32.2317 45.4467 31.7329 44.2828 32.1431 43.2572L36.1431 33.2572C36.5533 32.2316 37.7173 31.7328 38.7428 32.143ZM32.7428 32.143C33.7684 32.5533 34.2672 33.7172 33.857 34.7428L29.857 44.7428C29.4468 45.7683 28.2828 46.2672 27.2573 45.8569C26.2317 45.4467 25.7329 44.2828 26.1431 43.2572L30.1431 33.2572C30.5533 32.2316 31.7173 31.7328 32.7428 32.143ZM44.7428 32.143C45.7684 32.5533 46.2672 33.7172 45.857 34.7428L41.857 44.7428C41.4468 45.7683 40.2828 46.2672 39.2573 45.8569C38.2317 45.4467 37.7329 44.2828 38.1431 43.2572L42.1431 33.2572C42.5533 32.2316 43.7173 31.7328 44.7428 32.143ZM44.7428 23.143C45.7196 23.5337 46.2185 24.6081 45.9095 25.5954L45.857 25.7428L43.857 30.7428C43.4468 31.7683 42.2828 32.2672 41.2573 31.8569C40.2805 31.4662 39.7816 30.3919 40.0906 29.4046L40.1431 29.2572L42.1431 24.2572C42.5533 23.2316 43.7173 22.7328 44.7428 23.143ZM38.7428 23.143C39.7196 23.5337 40.2185 24.6081 39.9095 25.5954L39.857 25.7428L37.857 30.7428C37.4468 31.7683 36.2828 32.2672 35.2573 31.8569C34.2805 31.4662 33.7816 30.3919 34.0906 29.4046L34.1431 29.2572L36.1431 24.2572C36.5533 23.2316 37.7173 22.7328 38.7428 23.143ZM32.7428 23.143C33.7196 23.5337 34.2185 24.6081 33.9095 25.5954L33.857 25.7428L31.857 30.7428C31.4468 31.7683 30.2828 32.2672 29.2573 31.8569C28.2805 31.4662 27.7816 30.3919 28.0906 29.4046L28.1431 29.2572L30.1431 24.2572C30.5533 23.2316 31.7173 22.7328 32.7428 23.143Z" fill="url(#paint0_linear_17_851)"/>
<g filter="url(#filter0_i_17_851)">
<path fill-rule="evenodd" clip-rule="evenodd" d="M24 23C25.1046 23 26 23.8954 26 25V39C26 42.3137 23.3137 45 20 45C18.8954 45 18 44.1046 18 43C18 41.8954 18.8954 41 20 41C21.1046 41 22 40.1046 22 39V25C22 23.8954 22.8954 23 24 23Z" fill="url(#paint1_linear_17_851)"/>
</g>
<path fill-rule="evenodd" clip-rule="evenodd" d="M24 3C36.1503 3 46 12.8497 46 25C46 26.1046 45.1046 27 44 27H4C2.89543 27 2 26.1046 2 25C2 12.8497 11.8497 3 24 3Z" fill="url(#paint2_linear_17_851)"/>
<path fill-rule="evenodd" clip-rule="evenodd" d="M24 27C19.5556 27 12.8889 27 4 27C2.89543 27 2 26.1046 2 25C2 12.8497 11.8497 3 24 3V27Z" fill="url(#paint3_linear_17_851)"/>
<path fill-rule="evenodd" clip-rule="evenodd" d="M32 27C32 13.7452 28.4183 3 24 3C19.5817 3 16 13.7452 16 27H32Z" fill="url(#paint4_linear_17_851)"/>
<defs>
<filter id="filter0_i_17_851" x="16" y="23" width="10" height="26" filterUnits="userSpaceOnUse" color-interpolation-filters="sRGB">
<feFlood flood-opacity="0" result="BackgroundImageFix"/>
<feBlend mode="normal" in="SourceGraphic" in2="BackgroundImageFix" result="shape"/>
<feColorMatrix in="SourceAlpha" type="matrix" values="0 0 0 0 0 0 0 0 0 0 0 0 0 0 0 0 0 0 127 0" result="hardAlpha"/>
<feOffset dx="-2" dy="4"/>
<feGaussianBlur stdDeviation="2"/>
<feComposite in2="hardAlpha" operator="arithmetic" k2="-1" k3="1"/>
<feColorMatrix type="matrix" values="0 0 0 0 1 0 0 0 0 1 0 0 0 0 1 0 0 0 1 0"/>
<feBlend mode="normal" in2="shape" result="effect1_innerShadow_17_851"/>
</filter>
<linearGradient id="paint0_linear_17_851" x1="1.99951" y1="22.9995" x2="1.99951" y2="46.0005" gradientUnits="userSpaceOnUse">
<stop stop-color="#4CAFFF"/>
<stop offset="1" stop-color="#8FD5FF"/>
</linearGradient>
<linearGradient id="paint1_linear_17_851" x1="18.5604" y1="23" x2="29.9494" y2="25.281" gradientUnits="userSpaceOnUse">
<stop stop-color="white"/>
<stop offset="1" stop-color="#B4E6FB"/>
</linearGradient>
<linearGradient id="paint2_linear_17_851" x1="24" y1="3" x2="24" y2="27" gradientUnits="userSpaceOnUse">
<stop stop-color="#FFAA85"/>
<stop offset="1" stop-color="#FF6161"/>
</linearGradient>
<linearGradient id="paint3_linear_17_851" x1="13" y1="3" x2="13" y2="27" gradientUnits="userSpaceOnUse">
<stop stop-color="#7AC7FF"/>
<stop offset="1" stop-color="#2E69FF"/>
</linearGradient>
<linearGradient id="paint4_linear_17_851" x1="24" y1="3" x2="24" y2="27" gradientUnits="userSpaceOnUse">
<stop stop-color="#FFFB95"/>
<stop offset="1" stop-color="#FFB812"/>
</linearGradient>
</defs>
</svg>
