<svg width="48" height="48" viewBox="0 0 48 48" fill="none" xmlns="http://www.w3.org/2000/svg">
<g filter="url(#filter0_i_17_4055)">
<path fill-rule="evenodd" clip-rule="evenodd" d="M31.6118 1.23807C33.4153 0.873506 34.7127 2.93244 33.6053 4.402C32.7724 5.50744 32.3158 6.84813 32.3158 8.26317C32.3158 11.8094 35.1906 14.6842 38.7368 14.6842C40.1518 14.6842 41.4921 14.2277 42.5969 13.395C44.0663 12.2875 46.1254 13.5845 45.7611 15.3881C44.6389 20.9449 39.737 25 34 25C27.3726 25 22 19.6274 22 13C22 7.2632 26.0548 2.36131 31.6118 1.23807Z" fill="url(#paint0_linear_17_4055)"/>
</g>
<g filter="url(#filter1_i_17_4055)">
<path fill-rule="evenodd" clip-rule="evenodd" d="M18 9C9.16344 9 2 16.1634 2 25L2.00337 25.3313C2.16721 33.3732 8.28258 40.0157 16.2043 40.9002L16.468 40.927L16.5604 40.9515C16.7019 40.9833 16.849 41 17 41H35L35.2943 40.996C41.262 40.8234 46 35.9545 46 30C46 23.9249 41.0751 19 35 19L34.5683 19.0083C34.1378 19.025 33.7111 19.0666 33.2899 19.1325L32.915 19.198L32.8113 18.9358C30.3965 13.033 24.6037 9 18 9Z" fill="url(#paint1_linear_17_4055)"/>
</g>
<path fill-rule="evenodd" clip-rule="evenodd" d="M17 34C18.0544 34 18.9182 34.8159 18.9946 35.8507L19 36V38H21C22.1046 38 23 38.8954 23 40C23 41.0544 22.1842 41.9182 21.1493 41.9945L21 42H19V44C19 45.1046 18.1046 46 17 46C15.9457 46 15.0819 45.1841 15.0055 44.1493L15 44V42H13C11.8955 42 11 41.1046 11 40C11 38.9456 11.8159 38.0818 12.8508 38.0055L13 38H15V36C15 34.8954 15.8955 34 17 34ZM31 34C32.0544 34 32.9182 34.8159 32.9946 35.8507L33 36V38H35C36.1046 38 37 38.8954 37 40C37 41.0544 36.1842 41.9182 35.1493 41.9945L35 42H33V44C33 45.1046 32.1046 46 31 46C29.9457 46 29.0819 45.1841 29.0055 44.1493L29 44V42H27C25.8955 42 25 41.1046 25 40C25 38.9456 25.8159 38.0818 26.8508 38.0055L27 38H29V36C29 34.8954 29.8955 34 31 34ZM41.1431 36.2572C41.5533 35.2317 42.7173 34.7328 43.7428 35.143C44.7196 35.5337 45.2185 36.6081 44.9095 37.5954L44.857 37.7428L42.857 42.7428C42.4468 43.7683 41.2828 44.2672 40.2573 43.857C39.2805 43.4663 38.7816 42.3919 39.0906 41.4046L39.1431 41.2572L41.1431 36.2572ZM5.14309 36.2572C5.55332 35.2317 6.71726 34.7328 7.74283 35.143C8.71956 35.5337 9.21852 36.6081 8.90946 37.5954L8.857 37.7428L6.857 42.7428C6.44677 43.7683 5.28283 44.2672 4.25726 43.857C3.28053 43.4663 2.78157 42.3919 3.09063 41.4046L3.14309 41.2572L5.14309 36.2572Z" fill="url(#paint2_linear_17_4055)"/>
<defs>
<filter id="filter0_i_17_4055" x="22" y="1.19556" width="23.8036" height="25.8044" filterUnits="userSpaceOnUse" color-interpolation-filters="sRGB">
<feFlood flood-opacity="0" result="BackgroundImageFix"/>
<feBlend mode="normal" in="SourceGraphic" in2="BackgroundImageFix" result="shape"/>
<feColorMatrix in="SourceAlpha" type="matrix" values="0 0 0 0 0 0 0 0 0 0 0 0 0 0 0 0 0 0 127 0" result="hardAlpha"/>
<feOffset dy="2"/>
<feGaussianBlur stdDeviation="8"/>
<feComposite in2="hardAlpha" operator="arithmetic" k2="-1" k3="1"/>
<feColorMatrix type="matrix" values="0 0 0 0 1 0 0 0 0 1 0 0 0 0 1 0 0 0 1 0"/>
<feBlend mode="overlay" in2="shape" result="effect1_innerShadow_17_4055"/>
</filter>
<filter id="filter1_i_17_4055" x="2" y="9" width="44" height="34" filterUnits="userSpaceOnUse" color-interpolation-filters="sRGB">
<feFlood flood-opacity="0" result="BackgroundImageFix"/>
<feBlend mode="normal" in="SourceGraphic" in2="BackgroundImageFix" result="shape"/>
<feColorMatrix in="SourceAlpha" type="matrix" values="0 0 0 0 0 0 0 0 0 0 0 0 0 0 0 0 0 0 127 0" result="hardAlpha"/>
<feOffset dy="2"/>
<feGaussianBlur stdDeviation="4"/>
<feComposite in2="hardAlpha" operator="arithmetic" k2="-1" k3="1"/>
<feColorMatrix type="matrix" values="0 0 0 0 0.831313 0 0 0 0 0.98288 0 0 0 0 0.98288 0 0 0 1 0"/>
<feBlend mode="normal" in2="shape" result="effect1_innerShadow_17_4055"/>
</filter>
<linearGradient id="paint0_linear_17_4055" x1="33.9018" y1="1.19556" x2="33.9018" y2="25" gradientUnits="userSpaceOnUse">
<stop stop-color="#FA6C21"/>
<stop offset="1" stop-color="#FFD358"/>
</linearGradient>
<linearGradient id="paint1_linear_17_4055" x1="2" y1="9" x2="2" y2="41" gradientUnits="userSpaceOnUse">
<stop stop-color="#8FD5FF"/>
<stop offset="1" stop-color="#4CAFFF"/>
</linearGradient>
<linearGradient id="paint2_linear_17_4055" x1="2.99951" y1="34" x2="2.99951" y2="46" gradientUnits="userSpaceOnUse">
<stop stop-color="#D6F0FF"/>
<stop offset="1" stop-color="#A2D5FF"/>
</linearGradient>
</defs>
</svg>
