<svg width="48" height="48" viewBox="0 0 48 48" fill="none" xmlns="http://www.w3.org/2000/svg">
<path fill-rule="evenodd" clip-rule="evenodd" d="M32.7428 30.143C33.7684 30.5533 34.2672 31.7172 33.857 32.7428L29.857 42.7428C29.4468 43.7683 28.2828 44.2672 27.2573 43.8569C26.2317 43.4467 25.7329 42.2828 26.1431 41.2572L30.1431 31.2572C30.5533 30.2316 31.7173 29.7328 32.7428 30.143ZM38.7428 30.143C39.7684 30.5533 40.2672 31.7172 39.857 32.7428L35.857 42.7428C35.4468 43.7683 34.2828 44.2672 33.2573 43.8569C32.2317 43.4467 31.7329 42.2828 32.1431 41.2572L36.1431 31.2572C36.5533 30.2316 37.7173 29.7328 38.7428 30.143ZM44.7428 30.143C45.7684 30.5533 46.2672 31.7172 45.857 32.7428L41.857 42.7428C41.4468 43.7683 40.2828 44.2672 39.2573 43.8569C38.2317 43.4467 37.7329 42.2828 38.1431 41.2572L42.1431 31.2572C42.5533 30.2316 43.7173 29.7328 44.7428 30.143ZM7.14309 31.2572C7.55332 30.2316 8.71726 29.7328 9.74283 30.143C10.7684 30.5533 11.2672 31.7172 10.857 32.7428L6.857 42.7428C6.44677 43.7683 5.28283 44.2672 4.25726 43.8569C3.2317 43.4467 2.73286 42.2828 3.14309 41.2572L7.14309 31.2572ZM16.1431 31.2572C16.5533 30.2316 17.7173 29.7328 18.7428 30.143C19.7684 30.5533 20.2672 31.7172 19.857 32.7428L15.857 42.7428C15.4468 43.7683 14.2828 44.2672 13.2573 43.8569C12.2317 43.4467 11.7329 42.2828 12.1431 41.2572L16.1431 31.2572Z" fill="url(#paint0_linear_17_4584)"/>
<path fill-rule="evenodd" clip-rule="evenodd" d="M24 23C25.1046 23 26 23.8954 26 25V39C26 42.3137 23.3137 45 20 45C18.8954 45 18 44.1046 18 43C18 41.8954 18.8954 41 20 41C21.1046 41 22 40.1046 22 39V25C22 23.8954 22.8954 23 24 23Z" fill="url(#paint1_linear_17_4584)"/>
<path fill-rule="evenodd" clip-rule="evenodd" d="M24 3C36.1503 3 46 12.8497 46 25C46 26.1046 45.1046 27 44 27H4C2.89543 27 2 26.1046 2 25C2 12.8497 11.8497 3 24 3Z" fill="url(#paint2_linear_17_4584)"/>
<path fill-rule="evenodd" clip-rule="evenodd" d="M24 27C19.5556 27 12.8889 27 4 27C2.89543 27 2 26.1046 2 25C2 12.8497 11.8497 3 24 3V27Z" fill="url(#paint3_linear_17_4584)"/>
<path fill-rule="evenodd" clip-rule="evenodd" d="M32 27C32 13.7452 28.4183 3 24 3C19.5817 3 16 13.7452 16 27H32Z" fill="url(#paint4_linear_17_4584)"/>
<defs>
<linearGradient id="paint0_linear_17_4584" x1="2.99951" y1="29.9995" x2="2.99951" y2="44.0005" gradientUnits="userSpaceOnUse">
<stop stop-color="#D6F0FF"/>
<stop offset="1" stop-color="#A2D5FF"/>
</linearGradient>
<linearGradient id="paint1_linear_17_4584" x1="22" y1="23" x2="22" y2="45" gradientUnits="userSpaceOnUse">
<stop stop-color="#BBC4DC"/>
<stop offset="1" stop-color="#8592B6"/>
</linearGradient>
<linearGradient id="paint2_linear_17_4584" x1="24" y1="3" x2="24" y2="27" gradientUnits="userSpaceOnUse">
<stop stop-color="#FFAA85"/>
<stop offset="1" stop-color="#FF6161"/>
</linearGradient>
<linearGradient id="paint3_linear_17_4584" x1="13" y1="3" x2="13" y2="27" gradientUnits="userSpaceOnUse">
<stop stop-color="#7AC7FF"/>
<stop offset="1" stop-color="#2E69FF"/>
</linearGradient>
<linearGradient id="paint4_linear_17_4584" x1="24" y1="3" x2="24" y2="27" gradientUnits="userSpaceOnUse">
<stop stop-color="#FFFB95"/>
<stop offset="1" stop-color="#FFB812"/>
</linearGradient>
</defs>
</svg>
