<svg width="48" height="48" viewBox="0 0 48 48" fill="none" xmlns="http://www.w3.org/2000/svg">
<g filter="url(#filter0_i_17_3999)">
<path fill-rule="evenodd" clip-rule="evenodd" d="M18 4C9.16344 4 2 11.1634 2 20L2.00337 20.3313C2.16721 28.3732 8.28258 35.0157 16.2043 35.9002L16.468 35.927L16.5604 35.9515C16.7019 35.9833 16.849 36 17 36H35L35.2943 35.996C41.262 35.8234 46 30.9545 46 25C46 18.9249 41.0751 14 35 14L34.5683 14.0083C34.1378 14.025 33.7111 14.0666 33.2899 14.1325L32.915 14.198L32.8113 13.9358C30.3965 8.033 24.6037 4 18 4Z" fill="url(#paint0_linear_17_3999)"/>
</g>
<path fill-rule="evenodd" clip-rule="evenodd" d="M21.1431 31.2572C21.5533 30.2316 22.7173 29.7328 23.7428 30.143C24.7684 30.5533 25.2672 31.7172 24.857 32.7428L20.857 42.7428C20.4468 43.7683 19.2828 44.2672 18.2573 43.8569C17.2317 43.4467 16.7329 42.2828 17.1431 41.2572L21.1431 31.2572ZM30.1431 31.2572C30.5533 30.2316 31.7173 29.7328 32.7428 30.143C33.7684 30.5533 34.2672 31.7172 33.857 32.7428L29.857 42.7428C29.4468 43.7683 28.2828 44.2672 27.2573 43.8569C26.2317 43.4467 25.7329 42.2828 26.1431 41.2572L30.1431 31.2572Z" fill="url(#paint1_linear_17_3999)"/>
<defs>
<filter id="filter0_i_17_3999" x="2" y="4" width="44" height="34" filterUnits="userSpaceOnUse" color-interpolation-filters="sRGB">
<feFlood flood-opacity="0" result="BackgroundImageFix"/>
<feBlend mode="normal" in="SourceGraphic" in2="BackgroundImageFix" result="shape"/>
<feColorMatrix in="SourceAlpha" type="matrix" values="0 0 0 0 0 0 0 0 0 0 0 0 0 0 0 0 0 0 127 0" result="hardAlpha"/>
<feOffset dy="2"/>
<feGaussianBlur stdDeviation="4"/>
<feComposite in2="hardAlpha" operator="arithmetic" k2="-1" k3="1"/>
<feColorMatrix type="matrix" values="0 0 0 0 0.831313 0 0 0 0 0.98288 0 0 0 0 0.98288 0 0 0 1 0"/>
<feBlend mode="normal" in2="shape" result="effect1_innerShadow_17_3999"/>
</filter>
<linearGradient id="paint0_linear_17_3999" x1="2" y1="4" x2="2" y2="36" gradientUnits="userSpaceOnUse">
<stop stop-color="#8FD5FF"/>
<stop offset="1" stop-color="#4CAFFF"/>
</linearGradient>
<linearGradient id="paint1_linear_17_3999" x1="16.9995" y1="29.9995" x2="16.9995" y2="44.0005" gradientUnits="userSpaceOnUse">
<stop stop-color="#D6F0FF"/>
<stop offset="1" stop-color="#A2D5FF"/>
</linearGradient>
</defs>
</svg>
