<svg width="48" height="48" viewBox="0 0 48 48" fill="none" xmlns="http://www.w3.org/2000/svg">
<g filter="url(#filter0_i_17_964)">
<path fill-rule="evenodd" clip-rule="evenodd" d="M18 4C9.16344 4 2 11.1634 2 20L2.00337 20.3313C2.16721 28.3732 8.28258 35.0157 16.2043 35.9002L16.468 35.927L16.5604 35.9515C16.7019 35.9833 16.849 36 17 36H35L35.2943 35.996C41.262 35.8234 46 30.9545 46 25C46 18.9249 41.0751 14 35 14L34.5683 14.0083C34.1378 14.025 33.7111 14.0666 33.2899 14.1325L32.915 14.198L32.8113 13.9358C30.3965 8.033 24.6037 4 18 4Z" fill="url(#paint0_linear_17_964)"/>
</g>
<path fill-rule="evenodd" clip-rule="evenodd" d="M26.1431 31.2572C26.5533 30.2316 27.7173 29.7328 28.7428 30.143C29.7684 30.5533 30.2672 31.7172 29.857 32.7428L25.857 42.7428C25.4468 43.7683 24.2828 44.2672 23.2573 43.8569C22.2317 43.4467 21.7329 42.2828 22.1431 41.2572L26.1431 31.2572ZM17.1431 31.2572C17.5533 30.2316 18.7173 29.7328 19.7428 30.143C20.7684 30.5533 21.2672 31.7172 20.857 32.7428L16.857 42.7428C16.4468 43.7683 15.2828 44.2672 14.2573 43.8569C13.2317 43.4467 12.7329 42.2828 13.1431 41.2572L17.1431 31.2572ZM35.1431 31.2572C35.5533 30.2316 36.7173 29.7328 37.7428 30.143C38.7684 30.5533 39.2672 31.7172 38.857 32.7428L34.857 42.7428C34.4468 43.7683 33.2828 44.2672 32.2573 43.8569C31.2317 43.4467 30.7329 42.2828 31.1431 41.2572L35.1431 31.2572Z" fill="url(#paint1_linear_17_964)"/>
<defs>
<filter id="filter0_i_17_964" x="0" y="4" width="46" height="36" filterUnits="userSpaceOnUse" color-interpolation-filters="sRGB">
<feFlood flood-opacity="0" result="BackgroundImageFix"/>
<feBlend mode="normal" in="SourceGraphic" in2="BackgroundImageFix" result="shape"/>
<feColorMatrix in="SourceAlpha" type="matrix" values="0 0 0 0 0 0 0 0 0 0 0 0 0 0 0 0 0 0 127 0" result="hardAlpha"/>
<feOffset dx="-2" dy="4"/>
<feGaussianBlur stdDeviation="2"/>
<feComposite in2="hardAlpha" operator="arithmetic" k2="-1" k3="1"/>
<feColorMatrix type="matrix" values="0 0 0 0 1 0 0 0 0 1 0 0 0 0 1 0 0 0 1 0"/>
<feBlend mode="normal" in2="shape" result="effect1_innerShadow_17_964"/>
</filter>
<linearGradient id="paint0_linear_17_964" x1="5.08244" y1="4" x2="46.4873" y2="35.3565" gradientUnits="userSpaceOnUse">
<stop stop-color="white"/>
<stop offset="1" stop-color="#B4E6FB"/>
</linearGradient>
<linearGradient id="paint1_linear_17_964" x1="12.9995" y1="29.9995" x2="12.9995" y2="44.0005" gradientUnits="userSpaceOnUse">
<stop stop-color="#4CAFFF"/>
<stop offset="1" stop-color="#8FD5FF"/>
</linearGradient>
</defs>
</svg>
