<svg width="48" height="50" viewBox="0 0 48 50" fill="none" xmlns="http://www.w3.org/2000/svg">
<g filter="url(#filter0_i_17_457)">
<path fill-rule="evenodd" clip-rule="evenodd" d="M34 6.73453C35.1046 6.73453 36 5.82186 36 4.69602C36 3.57018 35.1046 2.6575 34 2.6575C32.8954 2.6575 32 3.57018 32 4.69602C32 5.82186 32.8954 6.73453 34 6.73453ZM23 4.69602C24.7601 4.69602 26.4908 4.77063 28.161 4.91657C29.2615 5.01274 30.0772 6.00003 29.9829 7.12176C29.8885 8.24348 28.9199 9.07487 27.8193 8.9787C26.2634 8.84274 24.6467 8.77304 23 8.77304C18.085 8.77304 13.4981 9.39751 10.1672 10.4696C8.63206 10.9638 7.44137 11.531 6.68963 12.1031C6.38306 12.3364 6.17596 12.5507 6.06444 12.7261L6.03692 12.7712L6.0015 12.843V12.8572L6.01834 12.8954C6.02811 12.9143 6.04276 12.9399 6.06444 12.974C6.17596 13.1494 6.38306 13.3638 6.68963 13.5971C7.44137 14.1691 8.63206 14.7364 10.1672 15.2305C13.4981 16.3026 18.085 16.9271 23 16.9271C27.915 16.9271 32.5019 16.3026 35.8328 15.2305C37.3679 14.7364 38.5586 14.1691 39.3104 13.5971C39.6169 13.3638 39.824 13.1494 39.9356 12.974L39.9631 12.929L40 12.8501C40 12.6478 39.4826 12.0784 38.1998 11.4215C37.2128 10.9161 36.8147 9.69088 37.3105 8.68486C37.8064 7.67884 39.0085 7.273 39.9955 7.77841C42.4857 9.05353 44 10.72 44 12.8501C44 15.2639 41.9305 17.2096 38.5301 18.5942L37.9966 18.8027C37.8153 18.8708 37.6306 18.9373 37.4427 19.0024L36.8689 19.193C36.6744 19.2551 36.4768 19.3156 36.276 19.3746L35.6644 19.547C35.3541 19.6309 35.037 19.7113 34.7135 19.7883L34.058 19.9375C33.9474 19.9615 33.8361 19.9852 33.7241 20.0085L33.0441 20.1436C32.9294 20.1653 32.8141 20.1866 32.6982 20.2075L31.9949 20.3282C31.8765 20.3475 31.7574 20.3664 31.6378 20.3849L30.9127 20.4911C30.7907 20.508 30.6681 20.5245 30.5449 20.5406L29.7993 20.6321L29.0408 20.7138L28.2699 20.7855C28.011 20.8078 27.7501 20.8284 27.4873 20.8472L26.6936 20.8989C26.4272 20.9144 26.1591 20.9282 25.8893 20.9403L25.0751 20.9715C24.8021 20.9802 24.5276 20.9871 24.2516 20.9923L23.4192 21.0028C23.2798 21.0037 23.1401 21.0041 23 21.0041L22.1635 20.9989C21.8861 20.9954 21.6101 20.9902 21.3355 20.9832L20.5166 20.9572C20.2452 20.9468 19.9753 20.9347 19.7072 20.9208L18.9082 20.8743C18.6436 20.8571 18.3808 20.8382 18.1199 20.8176L17.3431 20.7509C17.2146 20.739 17.0867 20.7266 16.9592 20.7138L16.2007 20.6321L15.4551 20.5406L14.723 20.4393C14.6021 20.4216 14.4819 20.4035 14.3622 20.3849L13.6516 20.269C13.5344 20.2489 13.4178 20.2284 13.3018 20.2075L12.6139 20.0772C12.3873 20.0322 12.1632 19.9856 11.942 19.9375L11.2865 19.7883C10.963 19.7113 10.6459 19.6309 10.3356 19.547L9.72402 19.3746C9.52324 19.3156 9.32556 19.2551 9.13107 19.193L8.55734 19.0024C8.36936 18.9373 8.18468 18.8708 8.0034 18.8027L7.46987 18.5942C4.0695 17.2096 2 15.2639 2 12.8501C2 10.4363 4.0695 8.49056 7.46987 7.10597L8.0034 6.8974C8.18468 6.82936 8.36936 6.76281 8.55734 6.69775L9.13107 6.50711C9.32556 6.44508 9.52324 6.38455 9.72402 6.32556L10.3356 6.15315C10.6459 6.06925 10.963 5.98881 11.2865 5.91188L11.942 5.76269C12.0526 5.73861 12.1639 5.71492 12.2759 5.69163L12.9559 5.5566C13.0706 5.53488 13.1859 5.51357 13.3018 5.49265L14.0051 5.37195C14.1235 5.35263 14.2426 5.33372 14.3622 5.31521L15.0873 5.209C15.2093 5.19211 15.3319 5.17563 15.4551 5.15955L16.2007 5.06801L16.9592 4.98633L17.7301 4.91461C17.989 4.89236 18.2499 4.87179 18.5127 4.8529L19.3064 4.80129C19.5728 4.78578 19.8409 4.77196 20.1107 4.75986L20.9249 4.72867C21.1979 4.71999 21.4724 4.71303 21.7484 4.7078L22.5808 4.69733C22.7202 4.69645 22.8599 4.69602 23 4.69602ZM35.9249 22.343C36.8563 21.7378 38.0927 22.0167 38.6865 22.9661C39.2802 23.9154 39.0065 25.1756 38.0751 25.7808C34.5443 28.0751 28.8768 29.1582 21 29.1582C17.1101 29.1582 13.7672 28.8925 10.9633 28.3548C9.87776 28.1466 9.16334 27.0809 9.36759 25.9745C9.57184 24.8681 10.6174 24.1399 11.7029 24.3481C14.2402 24.8347 17.3418 25.0812 21 25.0812C21.9208 25.0812 22.8057 25.0655 23.6545 25.0343L24.6559 24.9896C29.9039 24.7115 33.6736 23.8058 35.9249 22.343ZM14.0945 32.5483C13.17 31.9322 11.9305 32.1966 11.3261 33.1389C10.7216 34.0812 10.981 35.3445 11.9055 35.9606C14.8525 37.9247 19.5281 38.8411 26 38.8411C28.7797 38.8411 31.221 38.6709 33.3291 38.3265C34.4197 38.1482 35.1621 37.1026 34.9873 35.991C34.8124 34.8793 33.7866 34.1226 32.6959 34.3008C30.8138 34.6083 28.5801 34.7641 26 34.7641C20.2366 34.7641 16.2455 33.9818 14.0945 32.5483ZM9.34615 42.2815C9.9362 41.3971 11.0884 41.1349 11.9853 41.6537L12.1246 41.7421C13.6807 42.8206 16.6592 43.4278 21 43.4278C22.6507 43.4278 24.1118 43.3407 25.3802 43.1687C26.4752 43.0202 27.4809 43.8046 27.6265 44.9206C27.7722 46.0366 27.0026 47.0616 25.9077 47.2101C24.4531 47.4073 22.8182 47.5048 21 47.5048C15.929 47.5048 12.2408 46.753 9.87538 45.1135C8.96198 44.4804 8.72504 43.2125 9.34615 42.2815ZM31 45.4663C32.1046 45.4663 33 44.5536 33 43.4278C33 42.3019 32.1046 41.3893 31 41.3893C29.8954 41.3893 29 42.3019 29 43.4278C29 44.5536 29.8954 45.4663 31 45.4663ZM9 38.3315C9 39.4573 8.10457 40.37 7 40.37C5.89543 40.37 5 39.4573 5 38.3315C5 37.2057 5.89543 36.293 7 36.293C8.10457 36.293 9 37.2057 9 38.3315ZM39 36.293C40.1046 36.293 41 35.3803 41 34.2545C41 33.1286 40.1046 32.216 39 32.216C37.8954 32.216 37 33.1286 37 34.2545C37 35.3803 37.8954 36.293 39 36.293ZM7 24.0619C7 25.1877 6.10457 26.1004 5 26.1004C3.89543 26.1004 3 25.1877 3 24.0619C3 22.9361 3.89543 22.0234 5 22.0234C6.10457 22.0234 7 22.9361 7 24.0619Z" fill="url(#paint0_linear_17_457)"/>
</g>
<defs>
<filter id="filter0_i_17_457" x="2" y="2.6575" width="42" height="46.8473" filterUnits="userSpaceOnUse" color-interpolation-filters="sRGB">
<feFlood flood-opacity="0" result="BackgroundImageFix"/>
<feBlend mode="normal" in="SourceGraphic" in2="BackgroundImageFix" result="shape"/>
<feColorMatrix in="SourceAlpha" type="matrix" values="0 0 0 0 0 0 0 0 0 0 0 0 0 0 0 0 0 0 127 0" result="hardAlpha"/>
<feOffset dy="2"/>
<feGaussianBlur stdDeviation="4"/>
<feComposite in2="hardAlpha" operator="arithmetic" k2="-1" k3="1"/>
<feColorMatrix type="matrix" values="0 0 0 0 0.831313 0 0 0 0 0.98288 0 0 0 0 0.98288 0 0 0 1 0"/>
<feBlend mode="normal" in2="shape" result="effect1_innerShadow_17_457"/>
</filter>
<linearGradient id="paint0_linear_17_457" x1="2" y1="2.6575" x2="2" y2="47.5048" gradientUnits="userSpaceOnUse">
<stop stop-color="#8FD5FF"/>
<stop offset="1" stop-color="#4CAFFF"/>
</linearGradient>
</defs>
</svg>
