<svg width="48" height="50" viewBox="0 0 48 50" fill="none" xmlns="http://www.w3.org/2000/svg">
<g filter="url(#filter0_i_17_481)">
<path fill-rule="evenodd" clip-rule="evenodd" d="M9.58142 3.64998C8.62484 3.08706 7.40166 3.42112 6.84937 4.39612C0.221954 16.0962 4.15496 31.057 15.634 37.8121C15.7098 37.8567 15.7873 37.8957 15.8661 37.9292C17.9595 39.3089 20.4115 40.1715 23.0483 40.3397C17.5719 42.5385 11.1992 42.264 5.70578 39.0313C4.74919 38.4683 3.52601 38.8024 2.97373 39.7774C2.42144 40.7524 2.74919 41.9992 3.70578 42.5621C15.1848 49.3171 29.863 45.3084 36.4904 33.6083C36.5342 33.531 36.5724 33.452 36.6053 33.3718C37.9589 31.2381 38.8052 28.7388 38.9703 26.0512C41.1275 31.633 40.8582 38.1284 37.6865 43.7277C37.1343 44.7027 37.462 45.9494 38.4186 46.5124C39.3752 47.0753 40.5984 46.7412 41.1506 45.7662C47.7781 34.0661 43.8451 19.1053 32.366 12.3503C32.2902 12.3056 32.2127 12.2666 32.1339 12.2331C30.0406 10.8535 27.5885 9.99086 24.9517 9.82258C30.4281 7.62382 36.8008 7.89834 42.2942 11.1311C43.2508 11.694 44.474 11.3599 45.0263 10.3849C45.5786 9.40991 45.2508 8.16318 44.2942 7.60026C32.8152 0.845214 18.137 4.85396 11.5096 16.554C11.4658 16.6313 11.4276 16.7103 11.3947 16.7906C10.0411 18.9243 9.19481 21.4236 9.02972 24.1111C6.87249 18.5293 7.14182 12.0339 10.3135 6.43464C10.8658 5.45963 10.538 4.2129 9.58142 3.64998ZM24 13.8693C30.0751 13.8693 35 18.889 35 25.0812C35 31.2733 30.0751 36.293 24 36.293C17.9249 36.293 13 31.2733 13 25.0812C13 18.889 17.9249 13.8693 24 13.8693ZM24 18.9656C20.6863 18.9656 18 21.7036 18 25.0812C18 28.4587 20.6863 31.1967 24 31.1967C27.3137 31.1967 30 28.4587 30 25.0812C30 21.7036 27.3137 18.9656 24 18.9656ZM24 23.0427C25.1046 23.0427 26 23.9553 26 25.0812C26 26.207 25.1046 27.1197 24 27.1197C22.8954 27.1197 22 26.207 22 25.0812C22 23.9553 22.8954 23.0427 24 23.0427Z" fill="url(#paint0_linear_17_481)"/>
</g>
<defs>
<filter id="filter0_i_17_481" x="2.70544" y="3.37653" width="42.5891" height="45.4093" filterUnits="userSpaceOnUse" color-interpolation-filters="sRGB">
<feFlood flood-opacity="0" result="BackgroundImageFix"/>
<feBlend mode="normal" in="SourceGraphic" in2="BackgroundImageFix" result="shape"/>
<feColorMatrix in="SourceAlpha" type="matrix" values="0 0 0 0 0 0 0 0 0 0 0 0 0 0 0 0 0 0 127 0" result="hardAlpha"/>
<feOffset dy="2"/>
<feGaussianBlur stdDeviation="4"/>
<feComposite in2="hardAlpha" operator="arithmetic" k2="-1" k3="1"/>
<feColorMatrix type="matrix" values="0 0 0 0 0.831313 0 0 0 0 0.98288 0 0 0 0 0.98288 0 0 0 1 0"/>
<feBlend mode="normal" in2="shape" result="effect1_innerShadow_17_481"/>
</filter>
<linearGradient id="paint0_linear_17_481" x1="2.70544" y1="3.37653" x2="2.70544" y2="46.7858" gradientUnits="userSpaceOnUse">
<stop stop-color="#8FD5FF"/>
<stop offset="1" stop-color="#4CAFFF"/>
</linearGradient>
</defs>
</svg>
