<svg width="48" height="48" viewBox="0 0 48 48" fill="none" xmlns="http://www.w3.org/2000/svg">
<g filter="url(#filter0_i_17_4002)">
<path fill-rule="evenodd" clip-rule="evenodd" d="M18 4C9.16344 4 2 11.1634 2 20L2.00337 20.3313C2.16721 28.3732 8.28258 35.0157 16.2043 35.9002L16.468 35.927L16.5604 35.9515C16.7019 35.9833 16.849 36 17 36H35L35.2943 35.996C41.262 35.8234 46 30.9545 46 25C46 18.9249 41.0751 14 35 14L34.5683 14.0083C34.1378 14.025 33.7111 14.0666 33.2899 14.1325L32.915 14.198L32.8113 13.9358C30.3965 8.033 24.6037 4 18 4Z" fill="url(#paint0_linear_17_4002)"/>
</g>
<path fill-rule="evenodd" clip-rule="evenodd" d="M16.0715 34.6286C16.2767 34.1158 16.8586 33.8664 17.3714 34.0715C17.8842 34.2767 18.1336 34.8586 17.9285 35.3714L15.9285 40.3714C15.7234 40.8842 15.1414 41.1336 14.6286 40.9285C14.1158 40.7234 13.8664 40.1414 14.0715 39.6286L16.0715 34.6286ZM25.0715 34.6286C25.2767 34.1158 25.8586 33.8664 26.3714 34.0715C26.8842 34.2767 27.1336 34.8586 26.9285 35.3714L24.9285 40.3714C24.7234 40.8842 24.1414 41.1336 23.6286 40.9285C23.1158 40.7234 22.8664 40.1414 23.0715 39.6286L25.0715 34.6286ZM34.0715 34.6286C34.2767 34.1158 34.8586 33.8664 35.3714 34.0715C35.8842 34.2767 36.1336 34.8586 35.9285 35.3714L33.9285 40.3714C33.7234 40.8842 33.1414 41.1336 32.6286 40.9285C32.1158 40.7234 31.8664 40.1414 32.0715 39.6286L34.0715 34.6286Z" fill="url(#paint1_linear_17_4002)"/>
<defs>
<filter id="filter0_i_17_4002" x="2" y="4" width="44" height="34" filterUnits="userSpaceOnUse" color-interpolation-filters="sRGB">
<feFlood flood-opacity="0" result="BackgroundImageFix"/>
<feBlend mode="normal" in="SourceGraphic" in2="BackgroundImageFix" result="shape"/>
<feColorMatrix in="SourceAlpha" type="matrix" values="0 0 0 0 0 0 0 0 0 0 0 0 0 0 0 0 0 0 127 0" result="hardAlpha"/>
<feOffset dy="2"/>
<feGaussianBlur stdDeviation="4"/>
<feComposite in2="hardAlpha" operator="arithmetic" k2="-1" k3="1"/>
<feColorMatrix type="matrix" values="0 0 0 0 0.831313 0 0 0 0 0.98288 0 0 0 0 0.98288 0 0 0 1 0"/>
<feBlend mode="normal" in2="shape" result="effect1_innerShadow_17_4002"/>
</filter>
<linearGradient id="paint0_linear_17_4002" x1="2" y1="4" x2="2" y2="36" gradientUnits="userSpaceOnUse">
<stop stop-color="#8FD5FF"/>
<stop offset="1" stop-color="#4CAFFF"/>
</linearGradient>
<linearGradient id="paint1_linear_17_4002" x1="13.9998" y1="33.9998" x2="13.9998" y2="41.0003" gradientUnits="userSpaceOnUse">
<stop stop-color="#D6F0FF"/>
<stop offset="1" stop-color="#A2D5FF"/>
</linearGradient>
</defs>
</svg>
